<?xml version="1.0" encoding="iso-8859-1"?>
<!-- Generator: Adobe Illustrator 16.0.0, SVG Export Plug-In . SVG Version: 6.00 Build 0)  -->
<!DOCTYPE svg PUBLIC "-//W3C//DTD SVG 1.1//EN" "http://www.w3.org/Graphics/SVG/1.1/DTD/svg11.dtd">
<svg version="1.1" id="Capa_1" xmlns="http://www.w3.org/2000/svg" xmlns:xlink="http://www.w3.org/1999/xlink" x="0px" y="0px"
	 width="40px" height="40px" viewBox="0 0 612 612" style="enable-background:new 0 0 612 612;" xml:space="preserve">
<g>
	<g>
		<path d="M544.104,233.143h-63.143V53.429C480.961,23.47,454.014,0,424.89,0H182.033c-4.362,0-7.471,1.972-10.22,5.333
			c-0.971,0.681-1.972,1.351-2.681,2.234L23.496,190.051c-0.699,0.874-1.195,1.846-1.661,2.826l-6.013,7.52
			c-2.079,2.584-1.146,5.818-1.146,9.131v349.044c0,28.958,21.012,53.429,50.786,53.429h359.429c29.123,0,56.07-23.47,56.07-53.429
			V427.429h63.144c29.512,0,53.428-23.927,53.428-53.429v-87.429C597.533,257.069,573.617,233.143,544.104,233.143z M568.39,374
			c0,13.416-10.87,24.285-24.286,24.285H359.533c-13.415,0-24.285-10.869-24.285-24.285v-87.429
			c0-13.415,10.87-24.286,24.285-24.286h184.571c13.416,0,24.286,10.871,24.286,24.286V374z M170.104,58.275v97.338
			c0,14.076-17.699,28.958-30.532,28.958H67.375l35.778-45.716L170.104,58.275z M451.819,558.571
			c0,13.843-13.94,24.286-26.929,24.286H65.462c-13.736,0-21.644-11.347-21.644-24.286V214.666l0.748-0.951h95.006
			c28.55,0,59.675-28.23,59.675-58.102V29.143h225.644c12.987,0,26.928,10.443,26.928,24.286v179.714h-92.286
			c-29.512,0-53.428,23.927-53.428,53.429V374c0,29.502,23.917,53.429,53.428,53.429h92.286V558.571z"/>
		<path d="M398.264,304.592c-2.147,0-3.848,0.709-5.101,2.127c-1.253,1.428-1.885,3.565-1.885,6.412v38.459
			c0,9.15-3.108,13.716-9.325,13.716c-2.351,0-4.148-0.524-5.411-1.573c-1.272-1.039-2.176-2.293-2.71-3.73
			c-0.534-1.467-1.078-3.4-1.613-5.848c-0.505-2.273-1.233-3.944-2.186-5.032c-0.952-1.06-2.351-1.612-4.216-1.612
			c-1.934,0-3.507,0.592-4.74,1.768c-1.234,1.156-1.855,2.866-1.855,5.071c0,2.079,0.32,4.284,0.942,6.596
			c0.641,2.302,1.467,4.343,2.467,6.11c1.934,3.322,4.479,5.731,7.616,7.208c3.147,1.506,7.082,2.244,11.793,2.244
			c5.217,0,9.637-1.089,13.289-3.206c3.633-2.146,6.236-5.129,7.811-8.938c0.952-2.282,1.555-4.536,1.836-6.741
			c0.271-2.215,0.408-4.905,0.408-8.062v-36.429c0-2.847-0.651-4.983-1.934-6.412C402.178,305.301,400.45,304.592,398.264,304.592z"
			/>
		<path d="M467.352,310.954c-2.069-1.846-4.537-3.147-7.383-3.954c-2.876-0.815-6.984-1.224-12.338-1.224h-18.059
			c-3.099,0-5.372,0.661-6.79,1.991c-1.428,1.321-2.127,3.546-2.127,6.635v53.604c0,2.788,0.641,4.896,1.933,6.334
			c1.302,1.447,3.012,2.166,5.119,2.166c2.03,0,3.701-0.738,5.032-2.186c1.331-1.457,1.991-3.584,1.991-6.411v-19.672h12.901
			c8.636,0,15.145-1.846,19.506-5.488c4.361-3.662,6.548-9.015,6.548-16.106c0-3.322-0.545-6.295-1.613-8.956
			C470.995,315.034,469.412,312.771,467.352,310.954z M457.657,333.151c-1.185,1.573-2.875,2.71-5.109,3.41
			c-2.225,0.689-5.013,1.049-8.325,1.049h-9.491v-21.255h9.491c6.295,0,10.452,1.03,12.482,3.08
			c1.798,1.933,2.691,4.439,2.691,7.489C459.396,329.489,458.823,331.559,457.657,333.151z"/>
		<path d="M544.396,339.32c-1.36-0.359-3.012-0.535-4.974-0.535h-15.99c-1.923,0-3.458,0.516-4.575,1.516
			c-1.117,1.03-1.69,2.303-1.69,3.857c0,1.895,0.69,3.244,2.021,4.021c1.341,0.797,3.332,1.194,5.955,1.194h10.909v11.288
			c-2.943,1.573-5.848,2.788-8.704,3.643c-2.855,0.855-5.916,1.292-9.17,1.292c-6.703,0-11.939-2.205-15.679-6.605
			c-3.75-4.381-5.625-10.666-5.625-18.816c0-3.779,0.486-7.198,1.447-10.308c0.962-3.089,2.361-5.712,4.178-7.858
			c1.807-2.117,4.012-3.749,6.566-4.876c2.564-1.117,5.47-1.682,8.733-1.682c3.157,0,5.761,0.467,7.801,1.419
			s3.662,2.127,4.856,3.507c1.205,1.408,2.672,3.458,4.42,6.168c0.622,0.855,1.399,1.516,2.342,1.992
			c0.942,0.476,1.903,0.719,2.914,0.719c1.836,0,3.41-0.622,4.721-1.875c1.312-1.253,1.973-2.749,1.973-4.537
			c0-1.632-0.563-3.526-1.71-5.634c-1.137-2.118-2.837-4.138-5.08-6.032c-2.234-1.895-5.159-3.469-8.763-4.722
			c-3.604-1.233-7.752-1.864-12.435-1.864c-5.692,0-10.782,0.815-15.271,2.486c-4.498,1.651-8.306,4.061-11.443,7.198
			c-3.128,3.128-5.498,6.937-7.11,11.414c-1.613,4.498-2.409,9.452-2.409,14.863c0,5.498,0.825,10.472,2.486,14.931
			s4.041,8.247,7.13,11.385c3.1,3.128,6.849,5.518,11.25,7.17c4.391,1.631,9.258,2.467,14.609,2.467
			c4.586,0,8.821-0.534,12.717-1.573c3.886-1.05,7.927-2.701,12.143-4.974c1.447-0.797,2.633-1.613,3.575-2.468
			s1.573-1.816,1.923-2.885c0.34-1.04,0.515-2.468,0.515-4.226v-13.338c0-2.399-0.417-4.197-1.253-5.411
			C546.863,340.438,545.765,339.66,544.396,339.32z"/>
	</g>
</g>
<g>
</g>
<g>
</g>
<g>
</g>
<g>
</g>
<g>
</g>
<g>
</g>
<g>
</g>
<g>
</g>
<g>
</g>
<g>
</g>
<g>
</g>
<g>
</g>
<g>
</g>
<g>
</g>
<g>
</g>
</svg>
