<?xml version="1.0" encoding="iso-8859-1"?>
<!-- Generator: Adobe Illustrator 16.0.0, SVG Export Plug-In . SVG Version: 6.00 Build 0)  -->
<!DOCTYPE svg PUBLIC "-//W3C//DTD SVG 1.1//EN" "http://www.w3.org/Graphics/SVG/1.1/DTD/svg11.dtd">
<svg version="1.1" id="Capa_1" xmlns="http://www.w3.org/2000/svg" xmlns:xlink="http://www.w3.org/1999/xlink" x="0px" y="0px"
	 width="40px" height="40px" viewBox="0 0 612 612" style="enable-background:new 0 0 612 612;" xml:space="preserve">
<g>
	<g>
		<path d="M549.031,233.143h-72.857V53.429C476.173,24.966,444.932,0,414.021,0H171.164c-4.507,0-7.732,2.089-10.492,5.654
			L96.383,89.313L12.812,189.827c-2.963,3.565-3.905,8.247-2.856,12.647c-0.622,2.147-0.068,4.566-0.068,7.053v349.044
			c0,30.96,16.398,53.429,44.705,53.429h359.429c30.911,0,62.152-24.966,62.152-53.429V427.429h72.857
			c29.512,0,53.428-23.927,53.428-53.429v-87.429C602.458,257.069,578.542,233.143,549.031,233.143z M573.316,374
			c0,13.416-10.87,24.285-24.285,24.285H364.458c-13.405,0-24.285-10.869-24.285-24.285v-87.429
			c0-13.415,10.88-24.286,24.285-24.286h184.572c13.415,0,24.285,10.871,24.285,24.286V374z M165.316,56.975v98.639
			c0,12.453-22.653,28.958-36.613,28.958H61.529l43.005-57.237L165.316,56.975z M447.031,558.571
			c0,12.259-18.438,24.286-33.01,24.286H54.592c-14.542,0-15.562-13.086-15.562-24.286V214.511l0.602-0.796h89.07
			c27.734,0,65.756-26.812,65.756-58.102V29.143h219.562c14.571,0,33.009,12.026,33.009,24.286v179.714h-82.571
			c-29.503,0-53.429,23.927-53.429,53.429V374c0,29.502,23.926,53.429,53.429,53.429h82.571V558.571L447.031,558.571z"/>
		<path d="M417.616,310.954c-2.069-1.846-4.527-3.147-7.373-3.954c-2.876-0.815-6.984-1.224-12.328-1.224h-18.078
			c-3.099,0-5.353,0.661-6.78,1.991c-1.418,1.321-2.137,3.546-2.137,6.635v53.604c0,2.788,0.65,4.896,1.952,6.334
			c1.282,1.447,2.992,2.166,5.119,2.166c2.021,0,3.701-0.738,5.032-2.186c1.321-1.457,1.991-3.584,1.991-6.411v-19.672h12.901
			c8.626,0,15.125-1.846,19.496-5.488c4.362-3.662,6.538-9.015,6.538-16.106c0-3.322-0.534-6.295-1.613-8.956
			C421.258,315.034,419.695,312.771,417.616,310.954z M407.92,333.151c-1.175,1.573-2.875,2.71-5.1,3.41
			c-2.234,0.689-5.003,1.049-8.325,1.049h-9.481v-21.255h9.481c6.295,0,10.442,1.03,12.473,3.08
			c1.808,1.933,2.711,4.439,2.711,7.489C409.679,329.489,409.086,331.559,407.92,333.151z"/>
		<path d="M482.41,310.954c-2.069-1.846-4.526-3.147-7.373-3.954c-2.885-0.815-6.984-1.224-12.327-1.224h-18.078
			c-3.1,0-5.353,0.661-6.781,1.991c-1.418,1.321-2.137,3.546-2.137,6.635v53.604c0,2.788,0.65,4.896,1.952,6.334
			c1.283,1.447,2.992,2.166,5.12,2.166c2.021,0,3.701-0.738,5.021-2.186c1.331-1.457,2.002-3.584,2.002-6.411v-19.672h12.9
			c8.626,0,15.125-1.846,19.496-5.488c4.362-3.662,6.538-9.015,6.538-16.106c0-3.322-0.534-6.295-1.612-8.956
			C486.052,315.034,484.489,312.771,482.41,310.954z M472.715,333.151c-1.176,1.573-2.876,2.71-5.101,3.41
			c-2.233,0.689-5.003,1.049-8.324,1.049h-9.481v-21.255h9.481c6.294,0,10.442,1.03,12.473,3.08c1.807,1.933,2.71,4.439,2.71,7.489
			C474.473,329.489,473.88,331.559,472.715,333.151z"/>
		<path d="M545.669,305.776h-44.783c-2.312,0-4.07,0.524-5.294,1.573c-1.215,1.04-1.816,2.468-1.816,4.265
			c0,1.729,0.583,3.128,1.758,4.197c1.166,1.059,2.943,1.593,5.353,1.593h15.368v50.505c0,2.885,0.66,5.032,1.972,6.45
			c1.312,1.428,3.012,2.146,5.101,2.146c2.05,0,3.73-0.709,5.022-2.127c1.292-1.408,1.952-3.546,1.952-6.47v-50.505h15.368
			c2.399,0,4.196-0.534,5.401-1.593c1.194-1.068,1.807-2.468,1.807-4.196c0-1.749-0.603-3.148-1.787-4.227
			C549.905,306.32,548.098,305.776,545.669,305.776z"/>
	</g>
</g>
<g>
</g>
<g>
</g>
<g>
</g>
<g>
</g>
<g>
</g>
<g>
</g>
<g>
</g>
<g>
</g>
<g>
</g>
<g>
</g>
<g>
</g>
<g>
</g>
<g>
</g>
<g>
</g>
<g>
</g>
</svg>
