<?xml version="1.0" encoding="iso-8859-1"?>
<!-- Generator: Adobe Illustrator 16.0.0, SVG Export Plug-In . SVG Version: 6.00 Build 0)  -->
<!DOCTYPE svg PUBLIC "-//W3C//DTD SVG 1.1//EN" "http://www.w3.org/Graphics/SVG/1.1/DTD/svg11.dtd">
<svg version="1.1" id="Capa_1" xmlns="http://www.w3.org/2000/svg" xmlns:xlink="http://www.w3.org/1999/xlink" x="0px" y="0px"
	 width="38px" height="38px" viewBox="0 0 612 612" style="enable-background:new 0 0 612 612;" xml:space="preserve">
<g>
	<g>
		<g id="group-44svg">
			<path id="path-1_39_" d="M568.286,519.714c0,50.972-41.316,92.286-92.287,92.286H136c-50.971,0-92.286-41.314-92.286-92.286
				V92.286C43.714,41.315,85.029,0,136,0h340c50.971,0,92.287,41.315,92.287,92.286V519.714z M539.142,92.286
				c0-34.874-28.268-63.143-63.143-63.143H136c-34.875,0-63.143,28.269-63.143,63.143v427.428c0,34.875,28.269,63.144,63.143,63.144
				h340c34.875,0,63.143-28.269,63.143-63.144V92.286z"/>
			<path id="path-2_39_" d="M486.423,165.143H136.708c-8.043,0-14.571-6.528-14.571-14.571S128.665,136,136.708,136h349.714
				c8.043,0,14.572,6.528,14.572,14.571S494.466,165.143,486.423,165.143z"/>
			<path id="path-3_38_" d="M486.423,242.857H136.708c-8.043,0-14.571-6.528-14.571-14.571s6.528-14.571,14.571-14.571h349.714
				c8.043,0,14.572,6.528,14.572,14.571S494.466,242.857,486.423,242.857z"/>
			<path id="path-4_23_" d="M486.423,310.857H136.708c-8.043,0-14.571-6.528-14.571-14.572s6.528-14.571,14.571-14.571h349.714
				c8.043,0,14.572,6.528,14.572,14.571S494.466,310.857,486.423,310.857z"/>
			<path id="path-5_11_" d="M486.423,378.857H136.708c-8.043,0-14.571-6.528-14.571-14.571c0-8.044,6.528-14.572,14.571-14.572
				h349.714c8.043,0,14.572,6.528,14.572,14.572C500.995,372.329,494.466,378.857,486.423,378.857z"/>
		</g>
	</g>
</g>
<g>
</g>
<g>
</g>
<g>
</g>
<g>
</g>
<g>
</g>
<g>
</g>
<g>
</g>
<g>
</g>
<g>
</g>
<g>
</g>
<g>
</g>
<g>
</g>
<g>
</g>
<g>
</g>
<g>
</g>
</svg>
